<svg xmlns="http://www.w3.org/2000/svg" viewBox="0 0 200 200"><defs><style>.cls-1{fill:#bfdec5;}.cls-2{fill:#010101;}</style></defs><title>Fichier 36</title><g id="Calque_2"><g id="Calque_1-2"><circle class="cls-1" cx="100" cy="100" r="100"></circle><path class="cls-2" d="M68,136a12,12,0,1,1,0-24,12.47,12.47,0,0,1,2.22.2,12.9,12.9,0,0,1,2.18.6l16-21.9a18.2,18.2,0,0,1-3.2-5A14.71,14.71,0,0,1,84,80a16,16,0,0,1,27.3-11.3A15.41,15.41,0,0,1,116,80a14.83,14.83,0,0,1-1.19,5.94,17.75,17.75,0,0,1-3.21,5l16,22a9.45,9.45,0,0,1,2.15-.7A12.31,12.31,0,0,1,132,112a12,12,0,1,1-12,12,11.07,11.07,0,0,1,.75-4.1,13.13,13.13,0,0,1,2-3.5l-16-21.9a8.35,8.35,0,0,1-1.85.75c-.63.17-1.28.31-2,.44V112.4a11.84,11.84,0,0,1,6.45,4.2,12,12,0,1,1-18.9,0A11.84,11.84,0,0,1,97,112.4V95.69c-.67-.13-1.32-.27-2-.44a8.35,8.35,0,0,1-1.85-.75l-16,21.9a13.13,13.13,0,0,1,2,3.5A11.07,11.07,0,0,1,80,124a12,12,0,0,1-12,12Zm0-6a5.88,5.88,0,1,0-4.28-1.72A5.79,5.79,0,0,0,68,130Zm32,0a5.88,5.88,0,1,0-4.28-1.72A5.81,5.81,0,0,0,100,130Zm32,0a5.89,5.89,0,1,0-4.27-1.72A5.81,5.81,0,0,0,132,130ZM100,90a9.9,9.9,0,1,0-7.1-2.9A9.66,9.66,0,0,0,100,90Z"></path></g></g></svg>