<?xml version="1.0" encoding="UTF-8"?><svg id="Calque_1" xmlns="http://www.w3.org/2000/svg" viewBox="0 0 64 64"><defs><style>.cls-1{fill:#decde7;}</style></defs><circle class="cls-1" cx="32" cy="32" r="32"/><path d="m29.23,35.83l1.38-1.38-2.91-2.91,2.88-2.88-1.38-1.38-4.26,4.26,4.29,4.29Zm6.32,0l4.29-4.29-4.29-4.29-1.38,1.38,2.91,2.91-2.91,2.91,1.38,1.38Zm-12.55,6.98c-.5,0-.94-.19-1.31-.56s-.56-.81-.56-1.31v-18.77c0-.5.19-.94.56-1.31s.81-.56,1.31-.56h18.77c.5,0,.94.19,1.31.56s.56.81.56,1.31v18.77c0,.5-.19.94-.56,1.31s-.81.56-1.31.56h-18.77Zm0-1.88h18.77v-18.77h-18.77v18.77Zm0-18.77v18.77-18.77Z"/></svg>