<?xml version="1.0" encoding="UTF-8"?><svg id="Calque_1" xmlns="http://www.w3.org/2000/svg" viewBox="0 0 64 64"><defs><style>.cls-1{fill:#f8e08e;}</style></defs><circle class="cls-1" cx="32" cy="32" r="32"/><path d="m34.09,28.37v-1.49c.68-.29,1.38-.51,2.09-.65s1.46-.22,2.25-.22c.54,0,1.06.04,1.58.12s1.02.19,1.52.31v1.36c-.5-.19-1-.33-1.5-.42s-1.04-.14-1.6-.14c-.79,0-1.54.1-2.26.29s-1.42.47-2.08.82Zm0,6.82v-1.52c.68-.28,1.38-.49,2.09-.63s1.46-.21,2.25-.21c.54,0,1.06.04,1.58.12s1.02.19,1.52.31v1.36c-.5-.19-1-.33-1.5-.42s-1.04-.14-1.6-.14c-.79,0-1.54.09-2.26.28s-1.42.46-2.08.84Zm0-3.41v-1.49c.68-.29,1.38-.51,2.09-.65s1.46-.22,2.25-.22c.54,0,1.06.04,1.58.12s1.02.19,1.52.31v1.36c-.5-.19-1-.33-1.5-.42s-1.04-.14-1.6-.14c-.79,0-1.54.1-2.26.29s-1.42.47-2.08.82Zm-9.67,5.08c1.11,0,2.18.13,3.23.39,1.05.26,2.08.65,3.09,1.16v-13.23c-.93-.62-1.94-1.1-3.03-1.44-1.09-.34-2.19-.51-3.3-.51-.79,0-1.55.1-2.31.29s-1.51.44-2.28.73v13.45c.64-.29,1.37-.5,2.18-.64s1.62-.2,2.4-.2Zm8.18,1.55c1.03-.52,2.05-.9,3.04-1.16s2.05-.39,3.16-.39c.79,0,1.6.06,2.43.19s1.55.29,2.15.5v-13.29c-.7-.35-1.44-.61-2.23-.77-.78-.17-1.57-.25-2.36-.25-1.12,0-2.2.17-3.24.51s-2.03.82-2.96,1.44v13.23Zm-.93,2.79c-1.05-.79-2.2-1.39-3.44-1.81s-2.51-.64-3.81-.64c-.75,0-1.5.09-2.22.28-.73.19-1.45.41-2.18.68-.48.23-.94.2-1.38-.09-.44-.29-.66-.7-.66-1.24v-14.35c0-.31.07-.59.22-.85s.36-.46.65-.6c.87-.41,1.77-.72,2.71-.91.94-.2,1.89-.29,2.87-.29,1.3,0,2.57.18,3.8.53s2.38.89,3.46,1.61c1.05-.72,2.18-1.26,3.39-1.61s2.45-.53,3.73-.53c.97,0,1.92.1,2.85.29.93.2,1.83.5,2.7.91.29.14.51.35.67.6s.23.54.23.85v14.35c0,.58-.23,1.01-.7,1.32-.46.3-.92.31-1.38.02-.7-.29-1.42-.52-2.15-.7-.73-.18-1.47-.26-2.22-.26-1.3,0-2.55.22-3.75.65s-2.32,1.03-3.38,1.8Z"/></svg>