<?xml version="1.0" encoding="UTF-8"?><svg id="Calque_1" xmlns="http://www.w3.org/2000/svg" viewBox="0 0 64 64"><defs><style>.cls-1{fill:#a4dbe8;}</style></defs><circle class="cls-1" cx="32" cy="32" r="32"/><path d="m33.62,35.93c.35,0,.65-.13.9-.38.25-.25.38-.55.38-.9s-.13-.65-.38-.9c-.25-.25-.55-.38-.9-.38s-.65.13-.9.38c-.25.25-.38.55-.38.9s.13.65.38.9c.25.25.55.38.9.38Zm-.78-3.94h1.47c.04-.6.13-1.05.27-1.34.14-.29.47-.7,1.02-1.22.56-.54.95-1.01,1.17-1.42s.33-.88.33-1.42c0-.96-.33-1.74-.98-2.34-.66-.61-1.52-.91-2.58-.91-.79,0-1.5.21-2.12.64s-1.08,1.03-1.37,1.8l1.41.59c.23-.52.52-.92.86-1.19s.76-.41,1.23-.41c.62,0,1.12.18,1.51.53.39.35.58.8.58,1.34,0,.42-.09.78-.28,1.09s-.52.65-1,1c-.67.6-1.08,1.09-1.25,1.45-.17.36-.25.96-.25,1.8Zm-8.06,8.31c-.5,0-.94-.19-1.31-.56s-.56-.81-.56-1.31v-17.5c0-.5.19-.94.56-1.31s.81-.56,1.31-.56h17.5c.5,0,.94.19,1.31.56s.56.81.56,1.31v17.5c0,.5-.19.94-.56,1.31s-.81.56-1.31.56h-17.5Zm0-1.87h17.5v-17.5h-17.5v17.5Zm-3.75,5.62c-.5,0-.94-.19-1.31-.56s-.56-.81-.56-1.31v-19.37h1.87v19.37h19.37v1.87h-19.37Zm3.75-23.12v17.5-17.5Z"/></svg>