<?xml version="1.0" encoding="UTF-8"?><svg id="Calque_1" xmlns="http://www.w3.org/2000/svg" viewBox="0 0 64 64"><defs><style>.cls-1{fill:#decde7;}</style></defs><circle class="cls-1" cx="32" cy="32" r="32"/><path d="m23.66,45.5c-.79,0-1.57-.13-2.34-.4-.77-.27-1.45-.71-2.03-1.31.82-.28,1.4-.69,1.75-1.23s.53-1.26.53-2.17c0-1.02.36-1.89,1.07-2.6.72-.72,1.59-1.07,2.61-1.07s1.89.36,2.6,1.07,1.07,1.58,1.07,2.6c0,1.49-.51,2.72-1.52,3.68s-2.26,1.44-3.73,1.44Zm0-2.1c.82,0,1.55-.29,2.19-.88s.96-1.3.96-2.14c0-.47-.15-.85-.44-1.14s-.67-.44-1.14-.44-.85.15-1.14.44-.44.67-.44,1.14c0,.91-.1,1.58-.3,2.01s-.57.69-1.1.79c.14.02.37.06.7.12s.56.09.7.09Zm8.06-6.2l-3.15-3.33,13.17-13.17c.33-.33.69-.5,1.09-.51s.77.16,1.12.51l1.02,1.02c.35.35.52.73.51,1.14s-.18.78-.51,1.1l-13.24,13.24Z"/></svg>