<?xml version="1.0" encoding="UTF-8"?><svg id="Calque_1" xmlns="http://www.w3.org/2000/svg" viewBox="0 0 64 64"><defs><style>.cls-1{fill:#f8e08e;}</style></defs><circle class="cls-1" cx="32" cy="32" r="32"/><path d="m39.77,44.99l-9.37-9.44c-.56.19-1.11.35-1.67.47s-1.13.18-1.71.18c-2.35,0-4.35-.82-6-2.46-1.65-1.64-2.47-3.63-2.47-5.97,0-.75.1-1.48.3-2.19.2-.71.47-1.39.83-2.02l5.27,5.27,3.34-3.12-5.41-5.41c.63-.37,1.29-.65,2-.86.7-.2,1.42-.31,2.14-.31,2.4,0,4.44.84,6.12,2.52,1.68,1.68,2.52,3.72,2.52,6.12,0,.58-.06,1.15-.18,1.71s-.28,1.11-.47,1.67l9.41,9.37c.27.27.4.59.4.96s-.13.7-.4.96l-2.76,2.54c-.26.27-.57.4-.94.4s-.68-.13-.95-.4Zm1.02-2.07l1.45-1.45-9.92-9.92c.39-.51.68-1.11.87-1.8s.29-1.35.29-1.98c0-1.82-.67-3.35-2.02-4.61s-2.88-1.9-4.6-1.93l3.67,3.74c.22.22.33.48.33.8s-.11.58-.33.8l-4.79,4.5c-.22.22-.48.33-.8.33s-.58-.11-.8-.33l-3.52-3.49c.07,1.86.73,3.4,1.99,4.61,1.25,1.21,2.72,1.82,4.41,1.82.61,0,1.25-.1,1.93-.29s1.27-.48,1.78-.87l10.06,10.06Z"/></svg>